<?xml version="1.0" standalone="no"?>
<svg xmlns="http://www.w3.org/2000/svg">
<metadata>some icons</metadata>
<defs />
<g>


<path id="blogger" unicode="&#xe800;" d="M0-150l0 1000 1000 0 0-1000-1000 0z m188 377q0-195 218-191l235 0q160 23 173 189l0 88q-3 59-39 85t-84 28q10 35 2 94-5 61-47 101t-111 45l-191 0q-65-9-108-47t-48-99l0-293z m96-29q-16 29 0 58t56 35l285 0q41-5 58-35t1-58-55-35l-285 0q-43 5-60 35z m35 264q-14 27 1 53t55 32l156 0q41-4 56-30t-1-53-55-34l-156 0q-41 6-56 32z" style="fill:none;fill-rule:evenodd;stroke:#000000;stroke-width:0.05px;stroke-linecap:butt;stroke-linejoin:miter;stroke-opacity:1" />

<path id="googleplus" unicode="&#xe801;" d="M0-150l0 125q51 59 143 76 82 12 105 12 18 0 35-2 14-12 63-45t72-55q55-47 55-95 0-10-2-16l-471 0z m0 207l0 254q90-66 203-51-27-68 2-115 14-21 29-43l-50 0q-131-4-184-45z m0 617l0 176 1000 0 0-271-184 0 0 185-80 0 0-185-185 0 0-77 185 0 0-187 80 0 0 187 184 0 0-652-443 0q19 72-6 131-26 57-84 107-28 24-102 82-39 28-39 63 2 31 41 72 57 43 82 82 35 53 35 125 0 67-31 119-19 32-56 67l87 0 82 66-306 0q-74-2-145-24t-115-66z m59-60q13 58 70 86 25 11 55 13 45 0 80-27 68-57 91-154 20-78 2-129-23-67-74-80-78-22-133 15-64 51-86 141-15 68-5 135z" style="fill:none;fill-rule:evenodd;stroke:#000000;stroke-width:0.05px;stroke-linecap:butt;stroke-linejoin:miter;stroke-opacity:1" />

<path id="github" unicode="&#xe802;" d="M0 350q0 207 147 354t353 146 354-146 146-354-146-354-354-146-353 146-147 354z m55 0q0-183 131-314t314-131 314 131 131 314-131 315-314 130-314-130-131-315z m140-107q-4 4 0 7 8 8 20 6t14-4q13-5 30-26t26-28q47-39 96-6 4 14 13 23t16 14 28 12q-65 6-105 22t-63 42q-32 35-39 92t9 103q12 30 33 53-15 49 6 112 63-4 114-43 97 25 203 2 13 9 42 24t71 17q8-22 11-51t-3-55q45-47 47-125 0-62-22-103t-76-69q-37-17-98-21 28-14 40-29t17-45l0-62t2-60q6-9 14-16t13-10 4-9-15-6q-34 0-53 24-6 10-6 23l0 94q0 16-8 22t-15 9l0-123q0-33 7-43t10-19q2-2-3-3t-16 3q-26 5-36 26t-9 44l0 121-26 0 0-121q0-23-9-45-14-27-51-29-6 2-6 4 2 2 12 19 2 4 4 16t3 27l0 123q-7-2-14-9t-7-22l0-94q0-13-6-23-17-24-53-24-13 0-15 6-2 4 1 7t8 7 8 6q8 6 12 15 6 8 3 41t-1 43q-51-17-104 18-15 16-31 45-11 21-47 51z" style="fill:none;fill-rule:evenodd;stroke:#000000;stroke-width:0.05px;stroke-linecap:butt;stroke-linejoin:miter;stroke-opacity:1" />

<path id="ok-circled" unicode="&#xe803;" d="M717 440q0 16-10 26l-51 50q-11 11-25 11t-25-11l-228-227-126 126q-11 11-25 11t-25-11l-51-50q-10-10-10-26 0-15 10-25l202-202q10-10 25-10 15 0 26 10l303 303q10 10 10 25z m140-90q0-117-57-215t-156-156-215-58-216 58-155 156-58 215 58 215 155 156 216 58 215-58 156-156 57-215z" style="fill:none;fill-rule:evenodd;stroke:#000000;stroke-width:0.26458332px;stroke-linecap:butt;stroke-linejoin:miter;stroke-opacity:1" />

<path id="twitter" unicode="&#xf099;" d="M904 622q-37-54-90-93 0-8 0-23 0-73-21-145t-64-139-103-117-144-82-181-30q-151 0-276 81 19-2 43-2 126 0 224 77-59 1-105 36t-64 89q19-3 34-3 24 0 48 6-63 13-104 62t-41 115v2q38-21 82-23-37 25-59 64t-22 86q0 49 25 91 68-83 164-133t208-55q-5 21-5 41 0 75 53 127t127 53q79 0 132-57 61 12 115 44-21-64-80-100 52 6 104 28z" style="fill:none;fill-rule:evenodd;stroke:#000000;stroke-width:0.05px;stroke-linecap:butt;stroke-linejoin:miter;stroke-opacity:1" />

<path id="instagram" unicode="&#xf16d;" d="M571 350q0 59-41 101t-101 42-101-42-42-101 42-101 101-42 101 42 41 101z m77 0q0-91-64-156t-155-64-156 64-64 156 64 156 156 64 155-64 64-156z m61 229q0-21-15-36t-37-15-36 15-15 36 15 36 36 15 37-15 15-36z m-280 123q-4 0-43 0t-59 0-54-2-57-5-40-11q-28-11-49-32t-33-49q-6-16-10-40t-6-58-1-53 0-59 0-43 0-43 0-59 1-53 6-58 10-40q12-28 33-49t49-32q16-6 40-11t57-5 54-2 59 0 43 0 42 0 59 0 54 2 58 5 39 11q28 11 50 32t32 49q6 16 10 40t6 58 1 53 0 59 0 43 0 43 0 59-1 53-6 58-10 40q-11 28-32 49t-50 32q-16 6-39 11t-58 5-54 2-59 0-42 0z m428-352q0-128-3-177-5-116-69-180t-179-69q-50-3-177-3t-177 3q-116 6-180 69t-69 180q-3 49-3 177t3 177q5 116 69 180t180 69q49 3 177 3t177-3q116-6 179-69t69-180q3-49 3-177z" style="fill:none;fill-rule:evenodd;stroke:#000000;stroke-width:0.05px;stroke-linecap:butt;stroke-linejoin:miter;stroke-opacity:1" />

<path id="facebook-official" unicode="&#xf230;" d="M810 779q19 0 33-14t14-34v-762q0-20-14-34t-33-14h-218v333h111l16 129h-127v83q0 31 13 46t51 16l68 1v115q-35 5-100 5-75 0-121-44t-45-127v-95h-112v-129h112v-333h-411q-19 0-33 14t-14 34v762q0 20 14 34t33 14h763z" style="fill:none;fill-rule:evenodd;stroke:#000000;stroke-width:0.05px;stroke-linecap:butt;stroke-linejoin:miter;stroke-opacity:1" />

<path id="pinterest" unicode="&#xf231;" d="M0 517q0 60 21 113t58 93 85 69 103 44 113 14q88 0 164-37t123-108 47-160q0-54-10-105t-34-99-56-83-80-58-106-21q-38 0-75 18t-54 49q-5-22-15-63t-14-53-11-40-15-39-17-35-26-44-35-48l-7-3-5 6q-9 88-9 105 0 51 12 115t37 161 29 113q-18 36-18 94 0 47 29 87t74 41q34 0 53-23t19-57q0-37-24-106t-25-105q0-35 25-58t61-23q31 0 57 14t44 38 31 53 21 61 11 62 4 56q0 96-61 150t-160 54q-111 0-186-72t-75-183q0-25 7-48t15-36 15-26 7-17q0-15-8-40t-21-25q-1 0-9 1-29 9-51 31t-34 53-18 60-6 60z"style="fill:none;fill-rule:evenodd;stroke:#000000;stroke-width:0.05px;stroke-linecap:butt;stroke-linejoin:miter;stroke-opacity:1" />

<path id="snapchat" unicode="&#xf2ab;" d="M714 209q0 13-12 15-38 9-66 33t-45 61q-4 10-4 14 0 8 11 14t24 10 24 11 11 20q0 11-10 18t-22 7q-7 0-18-4t-17-5q-2 0-7 1 3 53 3 64 0 44-9 63-21 44-58 68t-85 24q-111 0-153-92-10-19-10-63 0-11 3-64-2-1-8-1-6 0-18 4t-16 4q-12 0-22-6t-10-18q0-12 11-20t24-11 24-10 11-14q0-4-4-14-35-77-110-94-13-2-13-15 0-25 77-38 1-2 3-14t7-17 13-5q6 0 21 2t22 3q19 0 37-9t30-18 32-18 43-8q24 0 44 8t32 18 30 18 37 9q8 0 23-3t21-2q9 0 13 6t6 17 3 13q77 13 77 38z m143 141q0-117-57-215t-156-156-215-58-216 58-155 156-58 215 58 215 155 156 216 58 215-58 156-156 57-215z" style="fill:none;fill-rule:evenodd;stroke:#000000;stroke-width:0.05px;stroke-linecap:butt;stroke-linejoin:miter;stroke-opacity:1" />

<path id="linkedin-squared" unicode="&#xf30c;" d="M132 61h129v387h-129v-387z m138 507q-1 29-21 48t-51 19-53-19-21-48q0-29 20-48t52-19h0q33 0 53 19t21 48z m326-507h129v222q0 86-41 130t-107 44q-76 0-117-65h1v56h-129q2-37 0-387h129v217q0 21 4 31 8 19 25 33t41 14q65 0 65-88v-207z m261 557v-536q0-66-47-113t-114-48h-535q-67 0-114 48t-47 113v536q0 66 47 113t114 48h535q67 0 114-48t47-113z" style="fill:none;fill-rule:evenodd;stroke:#000000;stroke-width:0.05px;stroke-linecap:butt;stroke-linejoin:miter;stroke-opacity:1" />
</g>
</svg>
