<?xml version="1.0" encoding="UTF-8" standalone="no"?>
<svg
   xmlns:dc="http://purl.org/dc/elements/1.1/"
   xmlns:cc="http://creativecommons.org/ns#"
   xmlns:rdf="http://www.w3.org/1999/02/22-rdf-syntax-ns#"
   xmlns:svg="http://www.w3.org/2000/svg"
   xmlns="http://www.w3.org/2000/svg"
   id="svg8"
   version="1.1"
   viewBox="0 0 210 297"
   height="297mm"
   width="210mm">
  <defs
     id="defs2" />
  <metadata
     id="metadata5">
    <rdf:RDF>
      <cc:Work
         rdf:about="">
        <dc:format>image/svg+xml</dc:format>
        <dc:type
           rdf:resource="http://purl.org/dc/dcmitype/StillImage" />
        <dc:title></dc:title>
      </cc:Work>
    </rdf:RDF>
  </metadata>
  <g
     id="layer1">
    <path
       id="path815"
       d="m 107.34524,103.47619 c -0.31147,-5.443597 -3.11028,-0.79919 -4.53572,-1.51191 -0.31874,-0.15936 -0.43721,-0.59658 -0.75595,-0.75595 -0.22538,-0.11269 -0.53057,0.11269 -0.75595,0 -0.31874,-0.15937 -0.43722,-0.59658 -0.75595,-0.75595 -0.45077,-0.22538 -1.061145,0.22538 -1.51191,0 -0.318736,-0.15937 -0.417881,-0.643261 -0.755952,-0.755953 -1.133928,-0.377975 -2.645833,0.377973 -3.779761,0 -0.338074,-0.112691 -0.41788,-0.643262 -0.755954,-0.755951 -0.478105,-0.159369 -1.007936,0 -1.511903,0 -1.511906,0 -3.023809,0 -4.535715,0 -1.25992,0 -2.519842,0 -3.779761,0 -0.251984,0 -0.503968,0 -0.755954,0 -0.251984,0 -0.530569,-0.112691 -0.755952,0 -0.318738,0.159369 -0.41788,0.64326 -0.755952,0.755951 -0.478107,0.15937 -1.007938,0 -1.511905,0 -0.503968,0.251984 -1.007936,0.503973 -1.511904,0.755953 -0.503967,0.25198 -1.043082,0.4434 -1.511905,0.75595 -0.296508,0.19767 -0.417881,0.64326 -0.755952,0.75595 -0.478107,0.15937 -1.022985,-0.12222 -1.511906,0 -3.650451,0.91262 0.03747,0.35925 -2.267857,1.51191 -0.22538,0.11269 -0.503968,0 -0.755952,0 -0.503968,0.25198 -1.043083,0.4434 -1.511903,0.75595 -0.688155,0.45877 -1.59783,1.93284 -2.267858,2.26786 -0.225382,0.11269 -0.530571,-0.11269 -0.755954,0 -0.318736,0.15937 -0.503968,0.50397 -0.755952,0.75595 -0.251984,0.25199 -0.596582,0.43721 -0.755951,0.75595 -0.112692,0.22539 0.178178,0.57778 0,0.75595 -1.564093,1.5641 0.06114,-2.39014 -1.511906,0.75596 -0.112689,0.22538 0,0.50397 0,0.75595 -0.251984,0.25198 -0.596583,0.43721 -0.755952,0.75595 -0.112691,0.22538 0.112692,0.53057 0,0.75596 -0.318738,0.63747 -1.193167,0.87443 -1.511906,1.5119 -0.112688,0.22538 0.112692,0.53057 0,0.75595 -0.159366,0.31874 -0.596582,0.43722 -0.755951,0.75596 -0.112692,0.22538 0.112691,0.53056 0,0.75595 -0.159369,0.31874 -0.596583,0.43721 -0.755952,0.75595 -0.229515,0.45903 0.229516,4.07668 0,4.53571 -0.159369,0.31874 -0.596585,0.43722 -0.755952,0.75596 -0.03222,0.0644 -0.03222,2.95936 0,3.0238 0.159367,0.31874 0.596583,0.43722 0.755952,0.75596 0.112691,0.22538 -0.112691,0.53057 0,0.75595 0.159369,0.31874 0.596583,0.43721 0.755952,0.75595 0.225382,0.45076 -0.22538,1.06115 0,1.51191 0.159369,0.31874 0.596585,0.43721 0.755951,0.75595 0.225383,0.45076 -0.22538,1.06114 0,1.51191 0.318739,0.63747 1.193168,0.87442 1.511906,1.5119 0.112692,0.22538 -0.112691,0.53057 0,0.75595 0.318738,0.63748 1.193168,0.87443 1.511906,1.51191 0.112689,0.22538 -0.112691,0.53057 0,0.75595 0.159367,0.31874 0.503968,0.50397 0.755952,0.75595 0.251984,0.25199 0.503967,0.50397 0.755951,0.75595 1.007938,1.00794 2.015874,2.01588 3.023809,3.02381 0.397984,0.39798 1.864117,2.06599 2.267858,2.26786 2.224624,1.11231 -0.995273,-1.75123 1.511906,0.75595 0.397981,0.39799 1.864114,2.06599 2.267857,2.26786 0.22538,0.11269 0.530569,-0.11269 0.755952,0 0.318738,0.15937 0.437213,0.59658 0.755952,0.75595 0.225382,0.11269 0.511492,-0.0611 0.755951,0 0.773054,0.19327 1.528009,0.46001 2.267858,0.75596 0.523155,0.20926 0.965274,0.61929 1.511905,0.75595 0.488921,0.12223 1.017723,-0.0988 1.511904,0 1.51806,-0.17348 2.463302,1.18279 3.779763,1.5119 0.977842,0.24446 2.045967,-0.24446 3.023809,0 0.546629,0.13666 0.965274,0.6193 1.511906,0.75595 0.488921,0.12223 1.007936,0 1.511903,0 1.511906,0 3.023809,0 4.535715,0 3.441314,0 0.04323,0.35636 2.267858,-0.75595 0.225376,-0.11269 0.530566,0.11269 0.755956,0 0.63747,-0.31874 0.87442,-1.19316 1.5119,-1.5119 0.22538,-0.11269 0.57777,0.17818 0.75595,0 0.17818,-0.17818 -0.17818,-0.57778 0,-0.75595 0.17818,-0.17819 0.57778,0.17817 0.75595,0 0.17819,-0.17819 -0.11269,-0.53058 0,-0.75596 0.45358,-0.90714 1.81429,-1.36071 2.26786,-2.26785 0.11269,-0.22539 -0.11269,-0.53058 0,-0.75596 0.15937,-0.31874 0.59658,-0.43721 0.75595,-0.75595 0.22539,-0.45076 -0.22538,-1.06114 0,-1.51191 0.15937,-0.31873 0.59659,-0.43721 0.75596,-0.75595 0.0977,-0.19545 0,-3.99989 0,-4.53571 0,-1.25992 0,-2.51984 0,-3.77976 0,-0.25199 0.17818,-0.57778 0,-0.75595 -0.17818,-0.17819 -0.57778,0.17817 -0.75596,0 -0.35636,-0.35636 0.22539,-1.06115 0,-1.51191 -0.31873,-0.63747 -1.19316,-0.87443 -1.5119,-1.5119 -0.11269,-0.22539 0.17818,-0.57778 0,-0.75596 -0.17818,-0.17818 -0.53057,0.11269 -0.75595,0 -0.31874,-0.15937 -0.43722,-0.59658 -0.75596,-0.75595 -0.22538,-0.11269 -0.53057,0.11269 -0.75595,0 -0.31874,-0.15937 -0.43721,-0.59658 -0.75595,-0.75595 -0.22538,-0.11269 -0.57777,0.17818 -0.75595,0 -0.17818,-0.17818 0.17818,-0.57777 0,-0.75596 -0.35636,-0.35635 -1.06114,0.22539 -1.511906,0 -0.318738,-0.15936 -0.437216,-0.59658 -0.755954,-0.75595 -0.22538,-0.11269 -0.530569,0.11269 -0.755952,0 -0.318738,-0.15937 -0.437213,-0.59658 -0.755952,-0.75595 -0.475133,-0.23757 -2.548678,0.23757 -3.023809,0 -0.318738,-0.15937 -0.437216,-0.59658 -0.755954,-0.75595 -0.22538,-0.11269 -0.503968,0 -0.755952,0 -1.511903,0 -3.023809,0 -4.535715,0 -0.340447,0 -2.037794,-0.11503 -2.267855,0 -0.318738,0.15937 -0.437216,0.59658 -0.755954,0.75595 -0.22538,0.11269 -0.530569,-0.11269 -0.755951,0 -0.318739,0.15937 -0.437216,0.59658 -0.755952,0.75595 -0.225383,0.11269 -0.577773,-0.17818 -0.755954,0 -0.178179,0.17818 0.178181,0.57778 0,0.75595 -1.564093,1.5641 0.06114,-2.39014 -1.511904,0.75596 -0.11503,0.23006 0,1.92741 0,2.26786 0,0.25198 0,0.50396 0,0.75595 0,0.25198 -0.178181,0.57777 0,0.75595 0.178179,0.17818 0.577774,-0.17818 0.755952,0 0.356359,0.35636 -0.22538,1.06114 0,1.51191 0.159369,0.31873 0.596585,0.43721 0.755952,0.75595 0.112691,0.22538 -0.178179,0.57777 0,0.75595 0.498041,0.49804 1.013867,-0.49804 1.511906,0 0.178181,0.17818 -0.112692,0.53057 0,0.75595 0.835726,1.67146 0.469177,0.23459 1.511905,0.75595 0.318736,0.15937 0.437214,0.59659 0.755952,0.75596 0.22538,0.11269 0.577773,-0.17818 0.755952,0 0.178181,0.17818 -0.178179,0.57777 0,0.75595 0.178181,0.17818 0.530571,-0.11269 0.755951,0 0.318739,0.15937 0.437216,0.59658 0.755955,0.75595 0.22538,0.11269 0.530569,-0.11269 0.755951,0 0.318738,0.15937 0.437216,0.59658 0.755952,0.75595 0.225382,0.1127 0.503968,0 0.755954,0 0.251984,0 0.503968,0 0.755952,0 0.251984,0 1.007935,0 0.755951,0 -0.503967,0 -2.015873,0 -1.511903,0 0.755952,0 1.511903,0 2.267855,0"
       style="fill:none;fill-rule:evenodd;stroke:#000000;stroke-width:0.26458332px;stroke-linecap:butt;stroke-linejoin:miter;stroke-opacity:1" />
  </g>
</svg>
