<?xml version="1.0" encoding="UTF-8" standalone="no"?>
<svg
   xmlns:dc="http://purl.org/dc/elements/1.1/"
   xmlns:cc="http://creativecommons.org/ns#"
   xmlns:rdf="http://www.w3.org/1999/02/22-rdf-syntax-ns#"
   xmlns:svg="http://www.w3.org/2000/svg"
   xmlns="http://www.w3.org/2000/svg"
   version="1.1"
   id="svg956"
   width="101.17387"
   height="96.571304">
  <metadata
     id="metadata949">some icons<rdf:RDF>
  <cc:Work
     rdf:about="">
    <dc:format>image/svg+xml</dc:format>
    <dc:type
       rdf:resource="http://purl.org/dc/dcmitype/StillImage" />
    <dc:title></dc:title>
  </cc:Work>
</rdf:RDF>
</metadata>
  <defs
     id="defs951" />
  <g
     id="g954"
     transform="matrix(0.11792832,0,0,-0.11251927,0.03218327,87.667397)">
    <path
       id="ok-circled"
       unicode=""
       d="m 717,440 q 0,16 -10,26 l -51,50 q -11,11 -25,11 -14,0 -25,-11 L 378,289 252,415 q -11,11 -25,11 -14,0 -25,-11 l -51,-50 q -10,-10 -10,-26 0,-15 10,-25 L 353,112 q 10,-10 25,-10 15,0 26,10 l 303,303 q 10,10 10,25 z M 857,350 Q 857,233 800,135 743,37 644,-21 545,-79 429,-79 313,-79 213,-21 113,37 58,135 3,233 0,350 q -3,117 58,215 61,98 155,156 94,58 216,58 122,0 215,-58 93,-58 156,-156 63,-98 57,-215 z"
       style="fill:#008000;fill-rule:evenodd;stroke:#000000;stroke-width:0.26458332px;stroke-linecap:butt;stroke-linejoin:miter;stroke-opacity:1" />
  </g>
</svg>
